<?xml version="1.0" standalone="no"?>
<!DOCTYPE svg PUBLIC "-//W3C//DTD SVG 20010904//EN"
 "http://www.w3.org/TR/2001/REC-SVG-20010904/DTD/svg10.dtd">
<svg version="1.0" xmlns="http://www.w3.org/2000/svg"
 width="900.000000pt" height="600.000000pt" viewBox="0 0 900.000000 600.000000"
 preserveAspectRatio="xMidYMid meet">

<g transform="translate(0.000000,600.000000) scale(0.100000,-0.100000)"
fill="#000000" stroke="none">
<path d="M3393 3160 c-31 -13 -35 -39 -31 -184 2 -85 7 -129 16 -138 9 -9 53
-13 158 -13 183 0 174 -9 174 170 0 177 7 169 -162 172 -73 1 -143 -2 -155 -7z"/>
<path d="M3873 3160 c-31 -13 -35 -39 -31 -184 2 -85 7 -129 16 -138 9 -9 53
-13 158 -13 183 0 174 -9 174 170 0 177 7 169 -162 172 -73 1 -143 -2 -155 -7z"/>
<path d="M4827 3152 c-14 -15 -17 -42 -17 -159 0 -182 -9 -173 177 -173 182 0
173 -9 173 177 0 182 9 173 -177 173 -123 0 -142 -2 -156 -18z"/>
</g>
</svg>
